<?xml version="1.0" encoding="UTF-8" standalone="no"?>
<!-- Created with Inkscape (http://www.inkscape.org/) -->

<svg
   xmlns:dc="http://purl.org/dc/elements/1.1/"
   xmlns:cc="http://creativecommons.org/ns#"
   xmlns:rdf="http://www.w3.org/1999/02/22-rdf-syntax-ns#"
   xmlns:svg="http://www.w3.org/2000/svg"
   xmlns="http://www.w3.org/2000/svg"
   xmlns:sodipodi="http://sodipodi.sourceforge.net/DTD/sodipodi-0.dtd"
   xmlns:inkscape="http://www.inkscape.org/namespaces/inkscape"
   width="480"
   height="380"
   viewBox="0 0 127 100.54167"
   version="1.1"
   id="svg8"
   inkscape:version="0.92.3 (2405546, 2018-03-11)"
   sodipodi:docname="boximage.svg">
  <defs
     id="defs2" />
  <sodipodi:namedview
     id="base"
     pagecolor="#ffffff"
     bordercolor="#666666"
     borderopacity="1.0"
     inkscape:pageopacity="0.0"
     inkscape:pageshadow="2"
     inkscape:zoom="0.98994949"
     inkscape:cx="201.74919"
     inkscape:cy="155.72207"
     inkscape:document-units="mm"
     inkscape:current-layer="layer1"
     showgrid="false"
     units="px"
     inkscape:window-width="1366"
     inkscape:window-height="703"
     inkscape:window-x="0"
     inkscape:window-y="0"
     inkscape:window-maximized="1" />
  <metadata
     id="metadata5">
    <rdf:RDF>
      <cc:Work
         rdf:about="">
        <dc:format>image/svg+xml</dc:format>
        <dc:type
           rdf:resource="http://purl.org/dc/dcmitype/StillImage" />
        <dc:title></dc:title>
      </cc:Work>
    </rdf:RDF>
  </metadata>
  <g
     inkscape:label="Camada 1"
     inkscape:groupmode="layer"
     id="layer1"
     transform="translate(0,-196.45832)">
    <g
       id="g266">
      <g
         id="g257"
         transform="matrix(0.23374828,0,0,0.23374828,7.1960352,227.15736)">
        <g
           id="g243"
           transform="matrix(1.211995,0,0,1.211995,-2.3380677,-16.379184)">
          <text
             id="text228"
             y="118.16315"
             x="231.22856"
             style="font-style:normal;font-weight:normal;font-size:34.13687897px;line-height:0;font-family:sans-serif;letter-spacing:0px;word-spacing:0px;fill:#333333;fill-opacity:1;stroke:none;stroke-width:0.85342199"
             xml:space="preserve"><tspan
               style="font-style:normal;font-variant:normal;font-weight:normal;font-stretch:normal;font-size:12.51685524px;font-family:'Open Sans';-inkscape-font-specification:'Open Sans';fill:#333333;stroke-width:0.85342199"
               y="118.16315"
               x="231.22856"
               id="tspan226"
               sodipodi:role="line">Mais proteção para você</tspan></text>
          <g
             transform="matrix(0.77945139,0,0,0.77945139,11.028881,17.436117)"
             inkscape:export-ydpi="120"
             inkscape:export-xdpi="120"
             id="g1010">
            <path
               inkscape:connector-curvature="0"
               id="path24"
               style="fill:none"
               d="M 0,1.0041013 V 153.50799 H 257.9528 V 1.0041013 Z" />
            <path
               inkscape:connector-curvature="0"
               id="path26"
               style="fill:none"
               d="M 0,1.0041013 V 153.50799 H 257.9528 V 1.0041013 Z" />
            <path
               inkscape:connector-curvature="0"
               id="path28"
               style="fill:#384968;fill-opacity:1;fill-rule:evenodd;stroke-width:2.51571751"
               d="m 85.477152,3.207379 c 39.199658,0 70.977198,32.28219 70.977198,72.10474 0,39.822551 -31.77754,72.104741 -70.977198,72.104741 -39.199407,0 -70.976693,-32.28219 -70.976693,-72.104741 0,-39.82255 31.777286,-72.10474 70.976693,-72.10474 z" />
            <path
               inkscape:connector-curvature="0"
               id="path30"
               style="fill:#ffffff;fill-rule:evenodd;stroke-width:2.51571751"
               d="M 71.923724,74.900548 V 35.176614 h 32.235896 c 12.18388,0 23.09857,5.203258 23.09857,18.909894 0,14.595438 -9.89935,20.81404 -23.09857,20.81404 z m -5.58439,46.069832 h 5.58439 V 79.723178 h 32.235896 c 15.86437,0 20.17958,7.107405 21.32172,15.864366 1.01534,8.757216 -1.01535,19.163986 2.41131,25.382836 h 6.21886 c -3.6805,-4.82263 -2.15748,-14.97582 -3.04604,-24.367492 -0.8883,-9.391677 -4.18791,-17.894802 -17.64096,-19.417817 v -0.253836 c 12.05683,-2.030687 19.41782,-11.041736 19.41782,-23.225356 0,-17.514173 -12.81834,-23.352147 -28.68271,-23.352147 H 66.339334 Z" />
            <path
               inkscape:connector-curvature="0"
               id="path34"
               style="fill:#1b1918;fill-rule:evenodd;stroke-width:2.51571751"
               d="m 206.16493,75.355641 c 0.71471,-15.007009 -6.63571,-27.972514 -23.07215,-27.972514 -15.82412,0 -23.37857,13.986383 -23.17454,28.381067 -0.20403,14.49657 7.86111,26.543086 23.17454,26.543086 12.45481,0 20.62209,-6.737849 22.66359,-18.988638 h -3.87923 c -1.83774,9.698594 -8.88174,15.619838 -18.78436,15.619838 -12.96551,0 -19.49908,-11.229911 -19.29505,-23.582839 z m -42.3672,-3.369049 c 0.81685,-10.413058 7.65658,-21.234416 19.29505,-21.234416 12.04651,0 18.98863,10.208781 19.19266,21.234416 z M 236.1792,98.93848 c -13.88425,0 -19.49908,-11.536326 -19.49908,-24.195164 0,-12.352928 6.12527,-23.99114 19.60121,-23.99114 13.27142,0 19.39694,11.944375 19.39694,23.99114 0,12.250537 -6.02338,24.195164 -19.49907,24.195164 z m 19.60121,20.92825 h 3.87924 V 48.608281 h -3.87924 v 11.229911 h -0.20428 c -4.28779,-8.269163 -10.71947,-12.455065 -20.11165,-12.455065 -15.82386,0 -22.66385,12.863366 -22.66385,27.360189 0,15.517448 7.5547,27.563964 23.37857,27.563964 8.57532,0 16.64046,-4.696092 19.39693,-12.965256 h 0.20428 z m 57.78251,-71.258449 h -3.87924 v 28.380816 c 0,12.863366 -7.1464,21.949383 -18.8865,21.949383 -14.29254,0 -14.90512,-11.74035 -14.90512,-17.151155 V 48.608281 h -3.87949 v 32.46458 c 0,6.431432 0.20428,21.234419 18.68248,21.234419 8.16727,0 16.13027,-4.593954 18.78436,-12.454817 h 0.20427 v 11.229907 h 3.87924 z m 16.23241,52.474089 V 48.608281 h -3.87948 v 52.474089 z m 0,-62.376708 V 28.190215 h -3.87948 v 10.515447 z m 12.35268,62.376708 h 3.87949 V 72.701308 c 0,-12.863116 7.14614,-21.949132 18.8865,-21.949132 14.29254,0 14.90512,11.740098 14.90512,17.150904 v 33.17929 h 3.87923 V 68.617795 c 0,-6.431683 -0.20402,-21.234668 -18.68222,-21.234668 -8.16702,0 -16.13002,4.593951 -18.78461,12.455065 H 346.0275 V 48.608281 h -3.87949 z M 414.42734,48.608281 H 402.9934 V 32.273979 h -3.87948 v 16.334302 h -9.6986 v 3.368797 h 9.6986 v 36.650231 c -0.4083,11.842491 7.24853,12.965251 15.21153,12.455061 V 97.713326 C 406.97478,97.917602 402.9934,97.100749 402.9934,88.627309 V 51.977078 h 11.43394 z m 51.04491,26.74736 c 0.71447,-15.007009 -6.63595,-27.972514 -23.07214,-27.972514 -15.82412,0 -23.37882,13.986383 -23.17454,28.381067 -0.20428,14.49657 7.86086,26.543086 23.17454,26.543086 12.45456,0 20.62184,-6.737849 22.66359,-18.988638 h -3.87949 c -1.83748,9.698594 -8.88174,15.619838 -18.7841,15.619838 -12.96551,0 -19.49933,-11.229911 -19.29505,-23.582839 z m -42.36719,-3.369049 c 0.8166,-10.413058 7.65658,-21.234416 19.29505,-21.234416 12.04651,0 18.98838,10.208781 19.19266,21.234416 z" />
            <text
               inkscape:transform-center-y="3.1575297"
               inkscape:transform-center-x="-13.187299"
               transform="rotate(-90.527719)"
               id="text67"
               y="59.042709"
               x="-120.81915"
               style="font-style:normal;font-weight:normal;font-size:28.92347717px;line-height:2.25;font-family:sans-serif;letter-spacing:0px;word-spacing:0px;fill:#ffffff;fill-opacity:1;stroke:none;stroke-width:0.72308695"
               xml:space="preserve"><tspan
                 style="font-style:normal;font-variant:normal;font-weight:normal;font-stretch:normal;font-family:'Open Sans';-inkscape-font-specification:'Open Sans';fill:#ffffff;stroke-width:0.72308695"
                 y="59.042709"
                 x="-120.81915"
                 id="tspan65"
                 sodipodi:role="line">totens</tspan></text>
            <rect
               y="-5.6028366e-06"
               x="0"
               height="153.508"
               width="480.10001"
               id="rect109"
               style="opacity:1;fill:none;fill-opacity:1;stroke:none;stroke-width:0;stroke-miterlimit:4;stroke-dasharray:none;stroke-opacity:1" />
          </g>
        </g>
      </g>
      <rect
         y="196.47572"
         x="0.016705986"
         height="100.54166"
         width="127"
         id="rect250"
         style="opacity:0.92600002;fill:none;fill-opacity:1;stroke:none;stroke-width:0.77082807;stroke-miterlimit:4;stroke-dasharray:none;stroke-opacity:1" />
    </g>
  </g>
</svg>
